<?xml version="1.0" encoding="UTF-8" standalone="no"?>
<!-- Created with Inkscape (http://www.inkscape.org/) -->

<svg
   xmlns:dc="http://purl.org/dc/elements/1.1/"
   xmlns:cc="http://creativecommons.org/ns#"
   xmlns:rdf="http://www.w3.org/1999/02/22-rdf-syntax-ns#"
   xmlns:svg="http://www.w3.org/2000/svg"
   xmlns="http://www.w3.org/2000/svg"
   xmlns:xlink="http://www.w3.org/1999/xlink"
   xmlns:sodipodi="http://sodipodi.sourceforge.net/DTD/sodipodi-0.dtd"
   xmlns:inkscape="http://www.inkscape.org/namespaces/inkscape"
   width="1118.5225"
   height="752"
   id="svg5946"
   version="1.1"
   inkscape:version="0.48.1 r9760"
   inkscape:export-filename="/opt/openvibe/trunk/openvibe-externals/ssvep-cite/trunc/share/openvibe-applications/ssvep-demo/resources/impact/enemyship.png"
   inkscape:export-xdpi="80.425529"
   inkscape:export-ydpi="80.425529"
   sodipodi:docname="enemyship.svg">
  <defs
     id="defs5948">
    <clipPath
       clipPathUnits="userSpaceOnUse"
       id="clipPath6545">
      <path
         style="color:#000000;fill:#445500;stroke:none;stroke-width:1;marker:none;visibility:visible;display:inline;overflow:visible;enable-background:accumulate"
         d="M 10.5,66.15625 198.4375,251 455.5,308.34375 476.40625,441.65625 509.25,403.1875 l 0,123.09375 -38,-26.78125 0,107 19.59375,79.5625 46.40625,55.4375 22,0 22,0 46.40625,-55.4375 L 647.25,606.5 l 0,-107 -38,26.78125 0,-123.09375 32.84375,38.46875 L 663,308.34375 920.0625,251 1108,66.15625 657.46875,129.875 l -19.03125,39.0625 -79.1875,0 -79.1875,0 L 461.03125,129.875 10.5,66.15625 z m 485.5625,505.125 63.25,8 0.4375,0.0625 0.4375,-0.0625 63.25,-8 0.3125,0.90625 -0.1875,0.0937 -63.0625,38.875 -0.75,0.46875 -0.75,-0.46875 -63.0625,-38.875 -0.1875,-0.0937 0.3125,-0.90625 z"
         id="path6547"
         inkscape:connector-curvature="0" />
    </clipPath>
  </defs>
  <sodipodi:namedview
     id="base"
     pagecolor="#000000"
     bordercolor="#666666"
     borderopacity="1.0"
     inkscape:pageopacity="0"
     inkscape:pageshadow="2"
     inkscape:zoom="1"
     inkscape:cx="743.18907"
     inkscape:cy="281.53699"
     inkscape:document-units="px"
     inkscape:current-layer="layer2"
     showgrid="false"
     showguides="true"
     inkscape:guide-bbox="true"
     inkscape:snap-page="true"
     inkscape:snap-object-midpoints="true"
     inkscape:snap-bbox="true"
     inkscape:snap-bbox-edge-midpoints="true"
     inkscape:snap-bbox-midpoints="true"
     inkscape:object-nodes="true"
     fit-margin-top="10"
     fit-margin-left="10"
     fit-margin-bottom="10"
     fit-margin-right="10"
     inkscape:snap-global="false"
     inkscape:window-width="1920"
     inkscape:window-height="1176"
     inkscape:window-x="0"
     inkscape:window-y="24"
     inkscape:window-maximized="1">
    <sodipodi:guide
       orientation="1,0"
       position="559,496"
       id="guide5954" />
  </sodipodi:namedview>
  <metadata
     id="metadata5951">
    <rdf:RDF>
      <cc:Work
         rdf:about="">
        <dc:format>image/svg+xml</dc:format>
        <dc:type
           rdf:resource="http://purl.org/dc/dcmitype/StillImage" />
        <dc:title></dc:title>
      </cc:Work>
    </rdf:RDF>
  </metadata>
  <g
     inkscape:label="Enemy Ship"
     inkscape:groupmode="layer"
     id="layer1"
     transform="translate(159.26126,-94.862183)"
     style="display:inline"
     sodipodi:insensitive="true">
    <g
       id="g5980"
       style="fill:#445500">
      <path
         style="fill:#333333;stroke:none"
         d="m 126.58037,283.98538 0,194.94512 19.21994,90.80848 19.21994,0 20.5928,-89.43563 0,-196.31797 z"
         id="path5988-4"
         inkscape:connector-curvature="0"
         sodipodi:nodetypes="ccccccc" />
      <path
         transform="translate(0,52.362183)"
         style="color:#000000;fill:#333333;stroke:none;stroke-width:1;marker:none;visibility:visible;display:inline;overflow:visible;enable-background:accumulate"
         d="m 230,81 c 0,0 6.92941,-28 60,-28 53.07059,0 60,28 60,28 l 0,185 -120,0 z"
         id="rect5997"
         inkscape:connector-curvature="0"
         sodipodi:nodetypes="czcccc" />
      <path
         style="fill:#333333;stroke:none"
         d="m 9.67463,202.97849 0,194.94512 19.21994,90.80848 19.21994,0 20.5928,-89.43563 0,-196.31797 z"
         id="path5988"
         inkscape:connector-curvature="0"
         sodipodi:nodetypes="ccccccc" />
      <path
         style="color:#000000;fill:#445500;stroke:none;stroke-width:1;marker:none;visibility:visible;display:inline;overflow:visible;enable-background:accumulate"
         inkscape:transform-center-y="19.602231"
         d="M 301.76126,172.36697 400,374 39.19097,293.49311 -148.76126,108.65268 z"
         id="path5985"
         inkscape:connector-curvature="0"
         sodipodi:nodetypes="ccccc"
         transform="translate(0,52.362183)" />
      <path
         sodipodi:nodetypes="cccccc"
         inkscape:connector-curvature="0"
         id="use5961"
         d="m 294.28571,263.79075 105.71428,0 0,175.71428 -82.85713,97 -22.85715,-145.57143 z"
         style="color:#000000;fill:#445500;stroke:none;stroke-width:1;marker:none;visibility:visible;display:inline;overflow:visible;enable-background:accumulate" />
      <rect
         style="color:#000000;fill:#445500;stroke:none;stroke-width:1;marker:none;visibility:visible;display:inline;overflow:visible;enable-background:accumulate"
         id="rect5990"
         width="50"
         height="262"
         x="350"
         y="364"
         transform="translate(0,52.362183)" />
      <path
         transform="translate(0,52.362183)"
         style="color:#000000;fill:#445500;stroke:none;stroke-width:1;marker:none;visibility:visible;display:inline;overflow:visible;enable-background:accumulate"
         d="m 312,542 88,62 0,180 -22,0 L 331.59089,728.57228 312,649 z"
         id="rect5994"
         inkscape:connector-curvature="0"
         sodipodi:nodetypes="ccccccc" />
      <path
         style="fill:#000000;stroke:#000000;stroke-width:1px;stroke-linecap:butt;stroke-linejoin:miter;stroke-opacity:1"
         d="m 400,705.59516 0,-30.95837 -63.26126,-8 z"
         id="path6057"
         inkscape:connector-curvature="0"
         sodipodi:nodetypes="cccc" />
    </g>
    <use
       x="0"
       y="0"
       xlink:href="#g5980"
       id="use5983"
       transform="matrix(-1,0,0,1,799.99998,0)"
       width="800"
       height="1000"
       style="fill:#445500" />
  </g>
  <g
     inkscape:groupmode="layer"
     id="layer8"
     inkscape:label="Camouflage"
     style="display:inline"
     sodipodi:insensitive="true">
    <g
       id="g6388"
       clip-path="url(#clipPath6545)">
      <path
         inkscape:connector-curvature="0"
         id="path6061"
         d="m 176.625,93.78125 c -9.87034,1.653281 -18.19494,8.26442 -24.11144,16.074 -7.13429,9.36901 -11.1734,21.55398 -9.20106,33.33225 1.2904,5.79674 7.95285,10.19993 13.72655,8.02456 7.0412,-2.12003 12.54859,-8.11312 20.10106,-8.72832 9.17146,-0.82852 17.95968,6.42837 19.51615,15.38685 1.12803,5.06529 0.12352,10.86199 3.44916,15.24751 4.28443,5.90995 12.95118,7.98261 19.45708,4.66315 6.33313,-2.81327 10.4294,-9.32774 11.34337,-16.06532 2.15929,-10.21462 -0.17134,-21.17471 -5.72163,-29.94769 -5.05403,-7.78845 -13.1039,-13.4428 -21.99435,-15.99292 -5.99162,-2.23119 -12.21642,-5.37345 -15.446,-11.17844 -2.45442,-3.72391 -4.12793,-8.491575 -8.38953,-10.549274 -0.88205,-0.246772 -1.81628,-0.33123 -2.72936,-0.266356 z"
         style="color:#000000;fill:#22280b;fill-opacity:1;fill-rule:nonzero;stroke:none;stroke-width:1;marker:none;visibility:visible;display:inline;overflow:visible;enable-background:accumulate" />
      <path
         inkscape:connector-curvature="0"
         id="path6061-4"
         d="m 314.1875,133.625 c -14.11442,0.42072 -28.29722,6.37782 -37.57201,17.20074 -5.42932,6.35054 -9.30701,14.76148 -8.06847,23.26921 0.52733,4.55624 1.78293,9.3408 0.01,13.7881 -1.4709,4.74805 -2.20256,9.80397 -1.28084,14.73542 2.04706,14.18572 12.82086,26.43369 26.30381,31.00156 11.10904,3.98965 24.23155,2.83769 33.93861,-4.11095 4.75541,-3.15583 8.48349,-7.55343 12.59844,-11.43064 4.98046,-3.33506 11.40308,-3.76284 16.08679,-7.63682 8.51953,-5.52622 15.80223,-13.59138 18.76571,-23.45114 2.18036,-7.15886 1.61877,-15.14235 -1.59421,-21.80298 -1.9785,-4.31338 -5.47251,-8.21138 -9.6581,-10.74016 -3.21047,-1.97747 -6.99956,-3.33322 -10.69326,-4.18496 -4.359,-1.08124 -8.69562,-2.8428 -11.73563,-6.20939 -2.87943,-2.74448 -5.66971,-5.87657 -9.53977,-7.21185 -5.50425,-2.38526 -11.56133,-3.50476 -17.56074,-3.21614 z"
         style="color:#000000;fill:#22280b;fill-opacity:1;fill-rule:nonzero;stroke:none;stroke-width:1;marker:none;visibility:visible;display:inline;overflow:visible;enable-background:accumulate" />
      <path
         inkscape:connector-curvature="0"
         id="path6061-66"
         d="m 561.25,349.6875 c -11.5473,1.05032 -22.75441,5.19338 -32.34375,11.6875 -7.22083,11.47693 -6.41098,27.02007 1.03125,38.1875 5.32336,8.46038 11.09987,16.70567 17.92801,24.02583 6.58915,6.15369 15.26701,9.13904 23.36171,12.71175 3.79559,2.12102 5.89878,6.13387 7.65727,9.93392 2.63229,4.90525 6.70269,9.00993 11.64268,11.59086 14.2438,8.94895 31.85424,11.73079 48.34783,9.08139 5.23783,-0.72902 10.40818,-2.23188 15.73924,-2.06292 4.27571,-0.37681 8.54566,-1.93844 11.88576,-4.65583 3.60089,-3.13751 4.72243,-8.08723 4.81546,-12.67235 0.42187,-10.42131 -4.79158,-21.31925 -14.14248,-26.36616 -6.25712,-3.40032 -13.59492,-3.0029 -20.47843,-2.85184 -2.09288,-0.0329 -4.70851,0.34271 -6.08205,-1.63341 -1.84515,-2.89224 -2.10173,-6.44513 -3.32563,-9.60306 -4.87604,-14.47476 -13.52787,-28.02697 -25.98198,-37.10248 -4.27166,-3.15327 -9.22944,-5.3038 -13.16501,-8.92656 -2.83926,-2.28658 -4.7409,-5.58956 -8.00477,-7.36611 C 574.5147,350.249 567.69835,349.51832 561.25,349.6875 z"
         style="color:#000000;fill:#22280b;fill-opacity:1;fill-rule:nonzero;stroke:none;stroke-width:1;marker:none;visibility:visible;display:inline;overflow:visible;enable-background:accumulate" />
      <path
         inkscape:connector-curvature="0"
         id="path6061-1"
         d="m 781.625,119 c -7.19343,0.92261 -13.8575,4.9657 -17.9375,10.96875 -3.01991,4.44289 -4.28989,10.19937 -3.5625,15.59375 -0.0451,3.56518 -3.66015,6.01933 -7,5.90625 -7.91083,1.52446 -15.31097,5.24411 -21.25,10.65625 -5.33709,4.9107 -9.496,11.52745 -11.23932,18.68795 -2.37619,9.46381 0.60117,20.24955 7.93961,26.79359 7.05573,6.64888 17.36582,9.29547 26.83658,7.6373 11.50273,-1.71788 22.15422,-8.66726 28.49438,-18.27509 3.40914,-5.24085 5.4976,-11.43985 5.32838,-17.74027 -0.0544,-3.35998 0.84164,-6.9396 3.47015,-9.1967 2.20265,-2.02413 5.19493,-2.67818 8.06392,-2.99762 3.41641,-0.55866 6.66613,-1.87732 9.42932,-4.04118 2.47478,-1.63466 5.25245,-4.15526 8.54434,-3.46028 3.80869,0.59431 6.3217,4.01649 7.60769,7.40492 3.18698,6.57767 7.1355,12.78584 12.54143,17.74064 3.51123,2.92098 8.88169,4.40692 13.26477,2.38424 3.58203,-1.41103 6.68856,-4.33531 8.49006,-7.72585 4.55084,-8.4922 4.04464,-19.12224 -0.30256,-27.58665 -2.41239,-4.6881 -5.86216,-9.41546 -10.10311,-13.07954 -5.88652,-4.95079 -13.49573,-8.84269 -21.44981,-8.75242 -3.26176,0.0308 -6.15235,1.23083 -9.07208,2.42571 -3.03057,1.09492 -6.6999,0.80432 -9.15625,-1.40625 -3.28648,-2.49402 -5.86986,-5.70533 -9.63338,-7.49041 C 795.08451,120.14729 788.31273,118.50314 781.625,119 z"
         style="color:#000000;fill:#22280b;fill-opacity:1;fill-rule:nonzero;stroke:none;stroke-width:1;marker:none;visibility:visible;display:inline;overflow:visible;enable-background:accumulate" />
      <path
         inkscape:connector-curvature="0"
         id="path6061-7"
         d="m 918.92196,214.51507 c -3.69304,4.16357 -9.11046,6.02859 -14.31629,7.48457 -5.70144,1.64321 -11.29554,3.64875 -16.65239,6.20964 -16.11555,7.41765 -30.75627,18.57025 -41.06286,33.11319 -2.61061,3.88432 -5.28218,8.27552 -4.99971,13.1301 0.9048,4.59852 6.30392,7.36712 10.65625,5.875 4.82244,-1.22444 8.97408,-4.1182 13.49556,-6.09153 17.52874,-8.76779 35.0769,-17.87817 54.01998,-23.23604 5.977,-1.92389 12.32145,-3.58672 17.26571,-7.64118 3.10613,-3.15262 4.29396,-8.10038 2.57862,-12.23933 -1.24659,-5.05338 -2.87919,-10.56181 -7.21335,-13.83728 -4.22117,-2.1479 -9.12805,-1.50362 -13.58402,-2.79839 l -0.18032,0.03 -0.007,10e-4 z"
         style="color:#000000;fill:#22280b;fill-opacity:1;fill-rule:nonzero;stroke:none;stroke-width:1;marker:none;visibility:visible;display:inline;overflow:visible;enable-background:accumulate" />
      <path
         inkscape:connector-curvature="0"
         id="path6061-044"
         d="m 1012.4375,46.71875 c -6.1655,0.481802 -12.091,2.968999 -16.87462,6.76531 -6.63563,5.107208 -11.10589,12.860041 -12.17062,21.169346 -0.93434,7.761958 0.14958,15.768721 3.00806,23.039538 3.10584,7.738426 8.31023,14.918946 15.31098,19.666116 5.151,3.49046 11.8076,4.61831 17.7887,2.70344 2.3999,-0.62096 4.5604,-2.11897 7,-2.5625 3.2217,-0.50108 6.3018,1.59171 7.648,4.44366 1.3748,2.68622 2.2016,5.61282 3.6476,8.26312 3.4597,7.21361 8.1564,13.65326 14.5626,18.49471 8.613,6.52332 20.4146,9.00778 30.7782,5.58347 7.3517,-2.51761 13.4583,-7.88537 17.2698,-14.65996 2.7691,-4.95599 4.3862,-10.73393 4.724,-16.47808 0.6209,-7.28758 -0.4475,-14.62048 -2.4608,-21.62348 -3.2511,-11.179277 -8.4398,-21.900107 -15.6987,-31.023809 -3.6443,-4.500398 -7.9351,-8.550211 -13.0019,-11.499631 -3.6476,-2.075543 -8.133,-3.510297 -12.5172,-3.4375 -5.2829,-0.05989 -10.2171,2.230369 -14.4516,5.21875 -2.413,1.606616 -5.1708,3.218141 -8.2004,2.650727 -3.5456,-0.507076 -6.415,-2.951409 -8.2442,-5.959459 -1.808,-2.955004 -4.0525,-5.667612 -6.8676,-7.493528 -3.1656,-2.169262 -7.312,-3.482241 -11.2503,-3.26024 z"
         style="color:#000000;fill:#22280b;fill-opacity:1;fill-rule:nonzero;stroke:none;stroke-width:1;marker:none;visibility:visible;display:inline;overflow:visible;enable-background:accumulate" />
      <path
         inkscape:connector-curvature="0"
         id="path6061-77-9"
         d="m 482.21875,127.71875 c -9.15291,0.84171 -17.78096,5.87946 -22.78255,13.6249 -4.92182,7.61287 -6.78958,17.70105 -3.02995,26.1876 2.13464,4.8138 6.17616,9.05825 11.3125,10.15625 4.76721,1.14061 10.04513,-0.18491 13.7421,-3.23181 4.55477,-3.64268 12.06715,-1.3827 14.3204,3.85681 1.38164,4.06842 2.53352,8.32856 5.19917,11.71185 3.9209,5.77321 9.71955,10.00793 16.30083,12.10065 4.96527,1.56369 10.49867,1.501 15.32566,-0.0168 3.39868,-0.87419 7.30938,-0.63286 10.00019,1.77997 3.76682,3.28478 7.54376,6.71974 12.31093,8.49635 7.75254,3.35925 17.03814,3.82378 24.74404,0.24968 6.48295,-3.0665 11.73029,-8.98109 13.9223,-15.82479 2.57908,-7.49062 0.6962,-15.91029 -3.97445,-22.17023 -3.30396,-4.6134 -8.3187,-8.44814 -13.78651,-10.66546 -7.42749,-3.10568 -15.84869,-3.81415 -23.67229,-2.14065 -4.88481,1.05993 -9.9753,2.69133 -14.95291,1.18292 -3.30682,-0.74746 -5.9614,-3.01765 -8.58952,-5.07392 -2.30633,-1.76308 -5.03817,-2.75607 -7.86072,-3.32005 -4.26587,-0.98146 -8.68475,-0.685 -12.98858,-0.18451 -5.60418,-0.26303 -9.83239,-5.78146 -9.64724,-11.21639 0.20564,-4.64458 -1.83168,-9.45281 -5.42465,-12.28361 -2.87858,-2.3411 -6.74767,-3.65023 -10.46875,-3.21875 z"
         style="color:#000000;fill:#22280b;fill-opacity:1;fill-rule:nonzero;stroke:none;stroke-width:1;marker:none;visibility:visible;display:inline;overflow:visible;enable-background:accumulate" />
      <path
         inkscape:connector-curvature="0"
         id="path6061-77-79"
         d="m 544.625,518.59375 c -5.57529,1.201 -11.29376,1.37199 -16.96713,1.60159 -14.13207,1.4291 -28.04442,7.24539 -38.2289,17.27603 -4.19988,4.24988 -6.95452,10.21484 -6.28742,16.27319 0.13144,2.39882 0.94234,4.7288 1.81065,6.90625 -0.21204,1.87611 -3.18705,1.86073 -3.74181,0.19291 -5.379,-5.00036 -15.05541,-3.10144 -18.50077,3.27702 -7.02809,11.05364 -12.38813,23.55455 -13.27915,36.74943 -0.65247,8.2092 2.64659,15.99259 5.56953,23.47358 1.9476,6.70299 0.20969,13.64761 -0.4375,20.39686 0.0788,8.19501 4.4613,15.50625 8.98752,22.04191 8.09222,11.49351 19.74625,20.88567 33.44137,24.63014 13.07855,3.07107 27.80913,-2.35637 35.44468,-13.48793 5.54162,-7.47762 7.91614,-17.00459 7.3512,-26.23244 0.31991,-7.58019 0.32146,-15.63562 4.23121,-22.39909 4.45048,-6.4007 11.96574,-9.39829 17.66382,-14.42611 9.60027,-9.32893 13.07444,-23.91047 10.02487,-36.78762 -1.86986,-9.42486 -5.57224,-18.79417 -4.41318,-28.55682 0.74122,-5.82319 0.86241,-12.21784 -2.49286,-17.31811 -4.07715,-7.29603 -11.54804,-13.37264 -20.17613,-13.61079 z"
         style="color:#000000;fill:#22280b;fill-opacity:1;fill-rule:nonzero;stroke:none;stroke-width:1;marker:none;visibility:visible;display:inline;overflow:visible;enable-background:accumulate" />
      <path
         inkscape:connector-curvature="0"
         id="path6061-9"
         d="m 608.51681,270.61987 c -6.06446,-7.96111 -15.79427,-12.24326 -25.46158,-13.8363 -11.61464,-1.94331 -24.27739,0.16445 -33.77763,7.4007 -4.52652,3.84419 -5.31562,11.79111 -0.69927,15.88467 5.15833,5.24066 13.02791,7.31869 17.09335,13.71325 5.00898,7.72737 2.68643,18.88537 -4.51313,24.43904 -3.95516,3.35952 -9.55162,5.17347 -11.88081,10.16021 -3.23078,6.54568 -1.02367,15.17917 4.94618,19.38706 5.4415,4.29105 13.11442,4.87762 19.50103,2.54491 10.04322,-2.85213 18.65259,-10.02388 23.826,-19.02426 4.53381,-8.10233 5.78291,-17.85999 3.8939,-26.91398 -0.81963,-6.34082 -0.94198,-13.31269 2.68775,-18.87624 2.15007,-3.90754 5.58761,-7.61087 5.42109,-12.34031 -0.19293,-0.89537 -0.55378,-1.76122 -1.03688,-2.53875 z"
         style="color:#000000;fill:#676c53;fill-opacity:1;fill-rule:nonzero;stroke:none;stroke-width:1;marker:none;visibility:visible;display:inline;overflow:visible;enable-background:accumulate" />
      <path
         id="path6061-4-5"
         d="m 488.4721,100.80458 c -6.95278,-12.290351 -18.83526,-22.05996 -32.73409,-25.21905 -8.1494,-1.8423 -17.39815,-1.35131 -24.34718,3.71095 -3.78488,2.59077 -7.4322,5.93227 -12.19316,6.43729 -4.8862,0.91244 -9.70011,2.622393 -13.63304,5.737 -11.59518,8.424782 -17.40743,23.66635 -15.16228,37.7239 1.64988,11.68785 8.7871,22.75977 19.46004,28.10758 5.00896,2.73558 10.6375,3.98338 15.98605,5.81605 5.27245,2.85112 8.64531,8.33353 14.25617,10.67086 8.86091,4.96042 19.39128,7.64293 29.49551,5.66768 7.34973,-1.4088 14.1506,-5.62777 18.54502,-11.57556 2.89345,-3.76134 4.71285,-8.66973 4.99852,-13.55156 0.25257,-3.76215 -0.31464,-7.74631 -1.28325,-11.41109 -1.07577,-4.36036 -1.53925,-9.0181 0.0217,-13.27709 1.08546,-3.82688 2.55539,-7.75562 1.93232,-11.80187 -0.4561,-5.98148 -2.28972,-11.86191 -5.34217,-17.0348 z"
         style="color:#000000;fill:#676c53;fill-opacity:1;fill-rule:nonzero;stroke:none;stroke-width:1;marker:none;visibility:visible;display:inline;overflow:visible;enable-background:accumulate"
         inkscape:connector-curvature="0" />
      <path
         id="path6061-93-9"
         d="m 837.73439,249.12444 c -8.18875,-10.05239 -20.18103,-16.2988 -32.5166,-19.69107 -6.43526,-1.66154 -13.83663,-1.76807 -19.57804,1.99754 -3.39428,2.39807 -6.0232,6.45575 -10.48225,6.88409 -6.69246,0.12548 -12.31169,-4.01702 -18.04479,-6.87937 -7.62092,-3.98357 -16.05525,-7.53581 -24.83816,-6.7415 -11.37775,1.26628 -20.78095,10.99552 -22.80569,22.08275 -1.44231,9.27354 1.95281,18.57274 6.7751,26.37031 6.44325,10.52366 16.04601,19.04651 27.22295,24.26642 4.57794,2.17559 9.30878,4.08784 14.174,5.50767 6.73457,1.44818 13.49955,-1.31493 19.12726,-4.8335 8.62593,-5.36096 15.80522,-13.17867 25.53624,-16.65606 3.67327,-1.21401 7.61156,-1.00806 11.34226,-0.18944 4.8847,0.83396 10.34117,1.94631 14.88612,-0.69361 5.1877,-3.14999 7.6365,-9.09423 9.48784,-14.59994 1.55125,-5.18097 2.37069,-11.04551 0.11003,-16.13941 -0.11687,-0.23678 -0.26521,-0.45604 -0.39622,-0.6849 z"
         style="color:#000000;fill:#676c53;fill-opacity:1;fill-rule:nonzero;stroke:none;stroke-width:1;marker:none;visibility:visible;display:inline;overflow:visible;enable-background:accumulate"
         inkscape:connector-curvature="0" />
      <path
         id="path6061-66-7"
         d="m 394.51784,167.10668 c -6.31289,-9.72578 -15.20321,-17.70867 -25.41916,-23.16425 -13.51979,-1.03709 -26.89266,6.92604 -33.30227,18.71651 -5.00267,8.65387 -9.60378,17.60835 -12.89617,27.06184 -2.37187,8.69822 -0.96701,17.76706 -0.35365,26.59385 -0.10677,4.34671 -2.67622,8.07823 -5.21812,11.40561 -3.11224,4.61567 -4.84575,10.13033 -4.82582,15.70386 -1.27591,16.77325 4.47364,33.64953 14.50729,47.00557 3.08697,4.29382 6.82708,8.16716 9.16311,12.96212 2.32682,3.60688 5.69912,6.65627 9.66035,8.3442 4.45449,1.72277 9.35622,0.40724 13.45588,-1.64818 9.41603,-4.48553 16.62637,-14.17864 16.7315,-24.80406 0.0909,-7.12077 -3.68182,-13.42696 -7.02476,-19.44612 -0.94666,-1.86683 -2.49844,-4.00566 -1.39063,-6.14211 1.69839,-2.98079 4.72188,-4.86425 6.94496,-7.41931 10.53192,-11.06223 18.48731,-25.03465 20.70958,-40.28362 0.79801,-5.24914 0.38903,-10.63775 1.75906,-15.80844 0.69911,-3.57786 2.73453,-6.80013 2.78446,-10.51583 0.40206,-6.56507 -2.12952,-12.9359 -5.28561,-18.56164 z"
         style="color:#000000;fill:#676c53;fill-opacity:1;fill-rule:nonzero;stroke:none;stroke-width:1;marker:none;visibility:visible;display:inline;overflow:visible;enable-background:accumulate"
         inkscape:connector-curvature="0" />
      <path
         inkscape:connector-curvature="0"
         id="path6061-93"
         d="m 435.46875,191.59375 c -12.71083,2.55755 -23.82797,10.25441 -32.58021,19.58565 -4.47022,4.91837 -8.01521,11.41642 -7.36074,18.25128 0.53896,4.12084 2.90296,8.33837 1.20295,12.48283 -3.00923,5.97908 -9.29381,9.01884 -14.49897,12.75618 -7.07723,4.88469 -14.15211,10.69006 -17.54428,18.83031 -4.18443,10.65585 0.0386,23.51059 8.90307,30.47101 7.53151,5.59957 17.34108,6.93161 26.4876,6.30098 12.31394,-0.79365 24.33089,-5.31524 34.15979,-12.76938 4.05904,-3.0356 7.9564,-6.32925 11.48079,-9.97136 4.42102,-5.28264 5.13064,-12.55562 4.64171,-19.17471 -0.72097,-10.13048 -4.2898,-20.1266 -2.82921,-30.35654 0.6386,-3.81561 2.65695,-7.20365 5.12052,-10.1224 3.01517,-3.93249 6.5432,-8.24102 6.32676,-13.49258 -0.36801,-6.05799 -4.48496,-10.99574 -8.4925,-15.20049 -3.86017,-3.78786 -8.66626,-7.24702 -14.22664,-7.62203 -0.26396,-0.007 -0.52709,0.022 -0.79064,0.0312 z"
         style="color:#000000;fill:#22280b;fill-opacity:1;fill-rule:nonzero;stroke:none;stroke-width:1;marker:none;visibility:visible;display:inline;overflow:visible;enable-background:accumulate" />
      <path
         id="path6061-1-3"
         d="m 731.3442,319.51059 c -4.17,-5.93361 -10.8538,-9.94405 -18.0667,-10.75466 -5.3384,-0.60019 -11.0231,0.96015 -15.4561,4.11868 -3.175,1.62229 -7.03158,-0.43161 -8.48868,-3.43897 -5.03691,-6.28767 -11.77772,-11.10008 -19.3346,-13.83081 -6.83264,-2.43201 -14.62524,-3.02631 -21.77266,-1.23011 -9.48014,2.31019 -17.63375,9.9728 -20.00161,19.51588 -2.59241,9.34186 -0.12687,19.69674 5.75562,27.30208 6.88267,9.37511 17.99659,15.55807 29.45226,16.68751 6.22583,0.57249 12.68356,-0.4701 18.17841,-3.55725 2.94709,-1.61465 6.53161,-2.49089 9.75387,-1.21787 2.81759,1.00489 4.79129,3.34711 6.41149,5.73626 2.0871,2.76191 4.7688,5.02202 7.9714,6.45765 2.5999,1.42722 6.1248,2.70934 7.0448,5.94557 1.25,3.64649 -0.6059,7.46519 -3.0039,10.18265 -4.3332,5.88611 -7.9844,12.27367 -9.8473,19.36617 -0.947,4.46811 0.2423,9.91195 4.0752,12.84646 2.9183,2.51102 6.9537,3.89587 10.7931,3.90881 9.6345,0.0666 18.8025,-5.33724 24.2638,-13.12942 3.0227,-4.31989 5.5964,-9.57581 6.8606,-15.03593 1.6353,-7.5158 1.5307,-16.06191 -2.2576,-23.0565 -1.548,-2.8712 -3.9573,-4.86891 -6.3756,-6.89479 -2.3816,-2.17055 -3.8353,-5.55216 -3.0249,-8.75584 0.6741,-4.07021 2.3106,-7.85285 2.1351,-12.01455 0.1943,-6.70898 -1.5084,-13.46628 -5.066,-19.15102 z"
         style="color:#000000;fill:#676c53;fill-opacity:1;fill-rule:nonzero;stroke:none;stroke-width:1;marker:none;visibility:visible;display:inline;overflow:visible;enable-background:accumulate"
         inkscape:connector-curvature="0" />
      <path
         inkscape:connector-curvature="0"
         id="path6061-77-86"
         d="m 646.8125,243.21875 c -8.93095,0.44254 -17.50906,4.47584 -24.03723,10.50253 -5.70687,5.37021 -9.50231,12.47216 -11.4628,20.0544 -0.90138,3.01636 -1.16569,6.31466 -2.66649,9.09729 -2.18787,2.03124 -5.32371,0.70554 -7.92723,0.62703 -9.87516,-0.28437 -19.34578,6.77535 -22.03174,16.26009 -2.94606,10.188 -0.1103,21.4711 6.11787,29.87441 4.00529,5.51773 9.66781,9.58643 15.78665,12.47377 7.39401,3.52482 15.66065,5.2369 23.85599,4.73944 2.95223,-0.0371 6.17599,-0.41917 8.74577,1.36344 3.31123,1.95812 5.70555,5.15771 9.06723,7.07712 8.75208,5.94916 19.3184,9.23258 29.90782,9.28152 7.27061,-0.0208 14.79764,-1.64703 21.11291,-4.97604 6.8054,-3.62941 12.70621,-9.50695 15.625,-16.625 2.34938,-5.59668 2.25668,-12.44993 -0.9375,-17.75 -2.38525,-4.03143 -6.68366,-7.05544 -11.27583,-8.24955 -3.3966,-1.05309 -7.14991,-0.74969 -10.40631,-2.32638 -3.74107,-1.43617 -6.1584,-5.1993 -6.66161,-9.04907 -0.75005,-4.54522 0.97355,-9.04454 0.84912,-13.62023 0.22184,-9.77963 -2.25783,-19.36364 -5.99014,-28.28165 -3.52546,-8.10812 -9.6482,-15.42975 -18.00931,-18.76916 -2.98407,-1.27146 -6.36182,-1.86139 -9.66217,-1.70396 z"
         style="color:#000000;fill:#22280b;fill-opacity:1;fill-rule:nonzero;stroke:none;stroke-width:1;marker:none;visibility:visible;display:inline;overflow:visible;enable-background:accumulate" />
      <path
         inkscape:connector-curvature="0"
         id="path6061-7-2"
         d="m 546.6891,439.43156 c -5.4052,-1.32596 -9.5809,-5.24901 -13.2961,-9.17556 -4.1118,-4.2777 -8.4942,-8.29155 -13.2573,-11.83664 -14.07565,-10.79849 -30.76791,-18.5509 -48.43876,-20.88839 -4.65346,-0.49852 -9.78376,-0.81464 -13.94673,1.6986 -3.6463,2.94442 -3.57834,9.01163 -0.22912,12.1663 3.33159,3.69536 7.82721,6.019 11.681,9.09896 15.92899,11.41923 32.17008,22.69584 45.74181,36.9561 4.4887,4.39065 8.9177,9.22813 14.8097,11.71177 4.2372,1.27809 9.1681,0.0221 12.03,-3.42508 3.8893,-3.45886 8.0012,-7.47137 8.8782,-12.8328 -0.068,-4.73576 -2.9256,-8.77624 -3.8577,-13.32196 l -0.1106,-0.14551 -0.01,-0.008 z"
         style="color:#000000;fill:#676c53;fill-opacity:1;fill-rule:nonzero;stroke:none;stroke-width:1;marker:none;visibility:visible;display:inline;overflow:visible;enable-background:accumulate" />
      <path
         id="path6061-044-3"
         d="m 657.9007,445.00207 c -3.3008,-5.22976 -8.2638,-9.31222 -13.8525,-11.77413 -7.6119,-3.48913 -16.5547,-3.82923 -24.402,-0.89707 -7.3024,2.79232 -13.8803,7.48421 -18.9798,13.4029 -5.3979,6.35548 -9.3238,14.3074 -10.2595,22.71394 -0.6863,6.18426 1.4195,12.59895 5.9021,16.99743 1.6682,1.83359 4.0007,3.04649 5.5305,4.99793 1.9454,2.6165 1.53,6.31707 -0.3654,8.83767 -1.7354,2.46863 -3.939,4.56455 -5.6094,7.07942 -4.7686,6.42388 -8.2758,13.58124 -9.5721,21.5058 -1.7553,10.66098 1.5491,22.25975 9.4103,29.83152 5.6548,5.32999 13.2505,8.22966 21.0208,8.44303 5.6754,0.13908 11.5409,-1.12419 16.78,-3.50345 6.7366,-2.84841 12.7256,-7.21241 17.9822,-12.25852 8.3742,-8.08825 15.4393,-17.67689 20.1264,-28.35232 2.2823,-5.3222 3.8645,-11.00626 4.1114,-16.86378 0.1356,-4.19458 -0.6864,-8.83158 -2.7948,-12.67618 -2.4101,-4.7015 -6.7367,-7.99882 -11.3547,-10.35165 -2.5463,-1.38564 -5.2577,-3.07402 -6.1682,-6.01874 -1.2045,-3.37307 -0.3799,-7.05115 1.4284,-10.07182 1.7712,-2.97719 3.1245,-6.22751 3.4273,-9.56923 0.4432,-3.81186 -0.3285,-8.09218 -2.361,-11.47275 z"
         style="color:#000000;fill:#676c53;fill-opacity:1;fill-rule:nonzero;stroke:none;stroke-width:1;marker:none;visibility:visible;display:inline;overflow:visible;enable-background:accumulate"
         inkscape:connector-curvature="0" />
      <path
         inkscape:connector-curvature="0"
         id="path6061-77"
         d="m 641.71875,552 c -11.93574,0.96446 -23.4204,8.49283 -28.22954,19.58946 -1.12787,2.10864 -1.02653,4.62147 -2.14546,6.72304 -10.94874,5.21277 -18.25173,16.93934 -18.59442,29.00127 -0.35949,9.39016 3.65987,18.44959 9.34279,25.74159 1.28912,1.76872 3.3065,3.33345 3.13879,5.75204 -0.17996,3.26571 -0.82854,6.52001 -0.57667,9.81101 0.58332,13.04159 7.81054,25.53883 18.68652,32.72258 11.61499,7.77959 27.26934,9.36454 40.06549,3.59651 8.95002,-4.00711 16.37898,-12.00912 18.44676,-21.74076 1.67749,-7.71823 -0.64961,-15.88301 -5.18593,-22.21808 -3.0362,-4.45948 -7.06086,-8.10491 -11.04208,-11.69741 -1.60995,-2.50078 0.3895,-5.27512 0.3073,-7.92718 0.21605,-2.1125 0.11487,-4.23676 0.22395,-6.35407 11.17695,-3.81567 19.68229,-14.92603 19.65625,-26.85623 0.0565,-10.24369 -5.20804,-20.08204 -13.10205,-26.45524 C 664.1173,554.59499 652.76566,551.38869 641.71875,552 z"
         style="color:#000000;fill:#22280b;fill-opacity:1;fill-rule:nonzero;stroke:none;stroke-width:1;marker:none;visibility:visible;display:inline;overflow:visible;enable-background:accumulate" />
      <path
         id="path6061-77-7"
         d="m 722.24831,132.54543 c -9.85726,-6.799 -23.515,-8.22726 -34.25672,-2.67042 -2.20701,0.92061 -3.7172,2.93158 -5.9128,3.8524 -11.77852,-2.8835 -24.85067,1.5847 -32.7422,10.71331 -6.21535,7.04796 -8.82897,16.60816 -9.03628,25.85078 -0.11948,2.18538 0.45425,4.67316 -1.20481,6.44099 -2.20414,2.41641 -4.76414,4.52769 -6.64969,7.23672 -7.79346,10.47307 -10.09524,24.72493 -6.21066,37.16692 4.08042,13.37088 15.20694,24.49614 28.76783,28.11744 9.46769,2.55394 20.28263,1.05108 28.03742,-5.18141 6.17944,-4.91931 9.53855,-12.71644 10.02921,-20.49273 0.46708,-5.37468 -0.34633,-10.74361 -1.15957,-16.04407 0.33375,-2.95541 3.63692,-3.84076 5.24997,-5.94749 1.50299,-1.50011 2.76764,-3.20989 4.1908,-4.78137 11.07201,4.11022 24.68613,0.87961 32.20869,-8.38005 6.52023,-7.90083 8.66159,-18.85177 6.5749,-28.78045 -2.17293,-10.92881 -8.94073,-20.58991 -17.88609,-27.10057 z"
         style="color:#000000;fill:#676c53;fill-opacity:1;fill-rule:nonzero;stroke:none;stroke-width:1;marker:none;visibility:visible;display:inline;overflow:visible;enable-background:accumulate"
         inkscape:connector-curvature="0" />
      <path
         id="path6061-77-9-9"
         d="m 1027.822,66.796322 c 1.0474,-9.13166 -2.1199,-18.607431 -8.6792,-25.086934 -6.4458,-6.374312 -15.939,-10.26516 -25.01493,-8.32003 -5.14855,1.10536 -10.12963,4.193729 -12.25458,8.997091 -2.09117,4.433313 -1.87273,9.87075 0.35397,14.112566 2.6345,5.203312 -1.11365,12.094943 -6.70316,13.229378 -4.26497,0.520661 -8.67063,0.77722 -12.52745,2.69485 -6.45289,2.657735 -11.7837,7.468106 -15.17776,13.482515 -2.54582,4.540682 -3.61575,9.970022 -3.11691,15.005362 0.16086,3.50562 -0.87491,7.28438 -3.78691,9.42504 -3.98553,3.01567 -8.12013,6.01056 -10.83387,10.3138 -4.8733,6.90197 -7.22648,15.89646 -5.30334,24.17031 1.67627,6.97296 6.3931,13.3187 12.64408,16.86362 6.8051,4.05606 15.43188,3.93437 22.51451,0.64223 5.19145,-2.29095 9.97045,-6.41575 13.25884,-11.31474 4.55863,-6.63564 6.97386,-14.7341 6.93525,-22.73459 -0.0388,-4.99833 -0.59502,-10.31484 1.89921,-14.8789 1.40775,-3.08416 4.17272,-5.21853 6.72287,-7.37072 2.19737,-1.89715 3.72788,-4.3683 4.85706,-7.01589 1.83289,-3.9751 2.44614,-8.36125 2.83614,-12.676493 1.40326,-5.43203 7.66958,-8.44268 12.95188,-7.15026 4.5044,1.15088 9.6276,0.13964 13.1332,-2.798665 2.8802,-2.339138 4.9527,-5.858815 5.2911,-9.589543 z"
         style="color:#000000;fill:#676c53;fill-opacity:1;fill-rule:nonzero;stroke:none;stroke-width:1;marker:none;visibility:visible;display:inline;overflow:visible;enable-background:accumulate"
         inkscape:connector-curvature="0" />
      <path
         id="path6061-77-86-3"
         d="m 550.51361,188.16076 c -6.30472,-0.7474 -13.43817,4.24688 -19.75028,12.72922 -5.54838,7.57624 -10.29299,18.20387 -13.91286,29.88934 -1.524,4.62901 -2.69192,9.80765 -4.56037,13.96946 -2.11888,2.86091 -3.89017,0.25379 -5.66612,-0.29261 -6.74017,-2.05126 -15.39449,7.58942 -20.08405,22.16908 -5.07941,15.65081 -6.4899,33.97269 -4.69553,48.28562 1.12,9.38443 3.81823,16.7436 7.18471,22.30656 4.05739,6.77888 9.25936,10.82952 15.07208,11.37071 2.05148,0.41993 4.39367,0.33775 5.63726,3.57642 1.7036,3.63673 2.40266,9.09013 4.1527,12.67376 4.27182,10.83701 10.59382,17.74806 17.89796,19.54242 5.03121,1.14586 10.7192,-0.20822 16.07834,-4.45444 5.78762,-4.64231 11.62159,-12.99023 15.76511,-23.78547 3.29554,-8.47913 5.27862,-19.34343 4.65419,-28.25176 -0.44431,-6.76882 -2.5118,-12.25301 -5.32893,-14.88791 -2.03295,-2.21784 -4.71764,-2.34604 -6.49729,-5.37005 -2.1566,-2.88011 -2.70322,-9.2294 -1.90105,-15.40549 0.83932,-7.31708 3.37457,-14.16044 4.65539,-21.42431 3.0746,-15.44603 4.22366,-31.02036 4.30802,-45.74345 -0.0146,-13.40744 -2.05921,-25.99089 -6.84037,-32.63305 -1.68261,-2.49664 -3.84088,-3.97819 -6.16891,-4.26405 z"
         style="color:#000000;fill:#676c53;fill-opacity:1;fill-rule:nonzero;stroke:none;stroke-width:1;marker:none;visibility:visible;display:inline;overflow:visible;enable-background:accumulate"
         inkscape:connector-curvature="0" />
      <path
         inkscape:connector-curvature="0"
         id="path6061-77-79-9"
         d="m 245.60085,198.64596 c -3.66185,-4.37231 -6.47925,-9.35151 -9.32747,-14.26348 -7.85308,-11.83583 -19.48491,-21.43184 -33.10696,-25.76507 -5.71783,-1.73406 -12.27911,-1.38993 -17.32768,2.02482 -2.06087,1.23468 -3.74405,3.03836 -5.26552,4.82172 -1.75859,0.68712 -3.13202,-1.95194 -1.91521,-3.2203 1.91577,-7.08993 -4.27557,-14.76495 -11.52469,-14.8391 -13.05546,-1.06394 -26.61357,0.0225 -38.70202,5.38616 -7.56657,3.25016 -12.91413,9.79758 -18.16952,15.87127 -5.02185,4.84811 -11.97577,6.54844 -18.24832,9.12261 -7.21308,3.89048 -11.63781,11.17624 -15.3094,18.22755 -6.39504,12.51751 -9.27046,27.20632 -6.19797,41.06767 3.38077,13.00194 15.05008,23.5031 28.45769,25.06811 9.19885,1.41617 18.73408,-0.92495 26.63423,-5.72705 6.85506,-3.2511 13.98212,-7.00543 21.78836,-6.69995 7.73742,0.95297 13.89312,6.20387 20.99767,8.90062 12.7289,4.14357 27.24842,0.41867 37.21855,-8.2829 7.46604,-6.04836 14.02856,-13.69198 23.2056,-17.21825 5.49714,-2.05923 11.21075,-4.9334 14.15844,-10.27959 4.55364,-7.00854 6.44623,-16.45086 2.63422,-24.19484 z"
         style="color:#000000;fill:#676c53;fill-opacity:1;fill-rule:nonzero;stroke:none;stroke-width:1;marker:none;visibility:visible;display:inline;overflow:visible;enable-background:accumulate" />
    </g>
  </g>
  <g
     inkscape:groupmode="layer"
     id="layer10"
     inkscape:label="Highlights">
    <path
       style="fill:#ffffff;stroke:none;opacity:0.5"
       d="M 10.5,66.15268 275.45223,114.99311 465.691,153.54552 359.94233,237.70533 115.72871,148.40548 z"
       id="path6550"
       inkscape:connector-curvature="0"
       sodipodi:nodetypes="cccccc" />
    <path
       style="fill:#ffffff;stroke:none;stroke-width:1px;stroke-linecap:butt;stroke-linejoin:miter;stroke-opacity:1;opacity:0.5"
       d="M 476.40412,441.64285 455.5,308.34375 489,409 z"
       id="path6570"
       inkscape:connector-curvature="0" />
    <path
       style="fill:#ffffff;stroke:none;stroke-width:1px;stroke-linecap:butt;stroke-linejoin:miter;stroke-opacity:1;opacity:0.5"
       d="M 471.26126,499.5 493,657 520,703 559.26124,741.5 521,680 z"
       id="path6572"
       inkscape:connector-curvature="0" />
    <path
       style="fill:#ffffff;stroke:none;opacity:0.5"
       d="M 535.25,420.28125 493,657 l 66,48 -43.73875,-84.5 z"
       id="path6574"
       inkscape:connector-curvature="0"
       sodipodi:nodetypes="ccccc" />
    <path
       style="fill:#ffffff;stroke:none;stroke-width:1px;stroke-linecap:butt;stroke-linejoin:miter;stroke-opacity:1;opacity:0.5"
       d="m 480.0625,168.9375 -26.51553,127.13392 50.55422,52.51672 -30.55422,-52.51672 z"
       id="path6576"
       inkscape:connector-curvature="0"
       sodipodi:nodetypes="ccccc" />
    <path
       style="fill:#ffffff;stroke:none;opacity:0.5"
       d="M 396,112 395,40 430,15 411,42 z"
       id="path6578"
       inkscape:connector-curvature="0"
       sodipodi:nodetypes="ccccc" />
    <path
       style="fill:#ffffff;stroke:none;opacity:0.5"
       d="m 617.5,113.5 -1,-72 35,-25 -19,27 z"
       id="path6578-3"
       inkscape:connector-curvature="0"
       sodipodi:nodetypes="ccccc" />
    <path
       style="fill:#ffffff;stroke:none;opacity:0.5"
       d="m 617.9375,152 14,-76 0.125,75.875 -10.875,12.125 z"
       id="path6598-7"
       inkscape:connector-curvature="0"
       sodipodi:nodetypes="ccccc" />
    <path
       style="fill:#ffffff;stroke:none;opacity:0.5"
       d="M 402.07502,120.96777 412.9375,62 l 0.0989,59.99953 z"
       id="path6598-7-9"
       inkscape:connector-curvature="0"
       sodipodi:nodetypes="cccc" />
    <path
       style="fill:#ffffff;stroke:none;opacity:0.5"
       d="M 659.34315,135.92893 669,297 642.93755,168.69491 z"
       id="path3055"
       inkscape:connector-curvature="0"
       sodipodi:nodetypes="cccc" />
    <path
       style="fill:#ffffff;stroke:none;opacity:0.5"
       d="M 1097.5955,74.223675 832.64327,123.0641 681.4045,162.61651 l 82.74867,45.15981 107.36053,15.88161 109.85309,-58.18146 z"
       id="path6550-0"
       inkscape:connector-curvature="0"
       sodipodi:nodetypes="ccccccc" />
    <path
       style="opacity:0.75000000000000000;color:#000000;fill:#ffffff;fill-opacity:1;fill-rule:nonzero;stroke:none;stroke-width:1;marker:none;visibility:visible;display:inline;overflow:visible;enable-background:accumulate"
       d="m 172.75,233 -0.25,67.5 18.75,90.75 -14.5,-89.75 z"
       id="path3172"
       inkscape:connector-curvature="0" />
    <path
       style="opacity:0.75000000000000000;color:#000000;fill:#ffffff;fill-opacity:1;fill-rule:nonzero;stroke:none;stroke-width:1;marker:none;visibility:visible;display:inline;overflow:visible;enable-background:accumulate"
       d="M 289.72855,276.84809 289.125,376.875 l 18.75,90.75 -14.5,-89.75 z"
       id="path3172-6"
       inkscape:connector-curvature="0"
       sodipodi:nodetypes="ccccc" />
    <path
       style="opacity:0.75000000000000000;color:#000000;fill:#ffffff;fill-opacity:1;fill-rule:nonzero;stroke:none;stroke-width:1;marker:none;visibility:visible;display:inline;overflow:visible;enable-background:accumulate"
       d="m 776.41789,285.79784 0.45711,95.07716 18.75,90.75 -14.5,-89.75 z"
       id="path3172-7"
       inkscape:connector-curvature="0"
       sodipodi:nodetypes="ccccc" />
    <path
       style="opacity:0.75000000000000000;color:#000000;fill:#ffffff;fill-opacity:1;fill-rule:nonzero;stroke:none;stroke-width:1;marker:none;visibility:visible;display:inline;overflow:visible;enable-background:accumulate"
       d="m 893.53889,259.12561 -0.16389,44.24939 18.75,90.75 -14.5,-89.75 -2.6504,-45.38812 z"
       id="path3172-3"
       inkscape:connector-curvature="0"
       sodipodi:nodetypes="cccccc" />
  </g>
  <g
     inkscape:groupmode="layer"
     id="layer2"
     inkscape:label="Shadows">
    <path
       style="fill:#000000;stroke:none"
       d="m 499.92449,39.236364 3.53554,123.036576 -20.5061,0 z"
       id="path3076"
       inkscape:connector-curvature="0" />
    <path
       style="fill:#000000;stroke:none"
       d="m 720.18826,35.70083 2.39411,83.31476 -14.03205,1.06032 z"
       id="path3076-3"
       inkscape:connector-curvature="0"
       sodipodi:nodetypes="cccc" />
    <path
       style="opacity:0.75;fill:#000000;stroke:none"
       d="M 478.35774,168.63691 449.13413,303.15877 454.5085,193.55722 z"
       id="path3096"
       inkscape:connector-curvature="0"
       sodipodi:nodetypes="cccc" />
    <path
       style="opacity:0.75;color:#000000;fill:#000000;fill-opacity:1;fill-rule:nonzero;stroke:none;stroke-width:1;marker:none;visibility:visible;display:inline;overflow:visible;enable-background:accumulate"
       d="m 637.10321,175.70797 2.82843,254.55844 21.9203,-129.40054 z"
       id="path3098"
       inkscape:connector-curvature="0"
       sodipodi:nodetypes="cccc" />
    <path
       style="opacity:0.75;color:#000000;fill:#000000;fill-opacity:1;fill-rule:nonzero;stroke:none;stroke-width:1;marker:none;visibility:visible;display:inline;overflow:visible;enable-background:accumulate"
       d="m 639.93164,521.48319 0.7071,78.48885 c 0,0 -15.55635,73.53911 -16.97056,76.36753 -1.41421,2.82843 -42.42641,59.39697 -42.42641,59.39697 l 35.35534,-90.50966 16.97057,-44.54773 z"
       id="path3100"
       inkscape:connector-curvature="0" />
    <path
       style="opacity:0.75;color:#000000;fill:#000000;fill-opacity:1;fill-rule:nonzero;stroke:none;stroke-width:1;marker:none;visibility:visible;display:inline;overflow:visible;enable-background:accumulate"
       d="m 675.99408,298.74455 242.53763,-49.49747 38.18377,-43.13352 c -68.31753,44.24796 -183.61503,63.62418 -280.7214,92.63099 z"
       id="path3102"
       inkscape:connector-curvature="0"
       sodipodi:nodetypes="cccc" />
    <path
       style="opacity:0.75;color:#000000;fill:#000000;fill-opacity:1;fill-rule:nonzero;stroke:none;stroke-width:1;marker:none;visibility:visible;display:inline;overflow:visible;enable-background:accumulate"
       d="M 482.75,177 617,255 519.25,206.5 z"
       id="path3104"
       inkscape:connector-curvature="0"
       sodipodi:nodetypes="cccc" />
    <path
       style="opacity:0.75;color:#000000;fill:#000000;fill-opacity:1;fill-rule:nonzero;stroke:none;stroke-width:1;marker:none;visibility:visible;display:inline;overflow:visible;enable-background:accumulate"
       d="m 482.625,192.25 134.25,78 -97.75,-48.5 z"
       id="path3104-4"
       inkscape:connector-curvature="0"
       sodipodi:nodetypes="cccc" />
    <path
       style="opacity:0.75;color:#000000;fill:#000000;fill-opacity:1;fill-rule:nonzero;stroke:none;stroke-width:1;marker:none;visibility:visible;display:inline;overflow:visible;enable-background:accumulate"
       d="m 481.375,207.5 134.25,78 -97.75,-48.5 z"
       id="path3104-3"
       inkscape:connector-curvature="0"
       sodipodi:nodetypes="cccc" />
    <path
       style="opacity:0.75;color:#000000;fill:#000000;fill-opacity:1;fill-rule:nonzero;stroke:none;stroke-width:1;marker:none;visibility:visible;display:inline;overflow:visible;enable-background:accumulate"
       d="m 483.625,225 134.25,78 -97.75,-48.5 z"
       id="path3104-7"
       inkscape:connector-curvature="0"
       sodipodi:nodetypes="cccc" />
    <path
       style="opacity:0.75000000000000000;color:#000000;fill:#000000;fill-opacity:1;fill-rule:nonzero;stroke:none;stroke-width:1;marker:none;visibility:visible;display:inline;overflow:visible;enable-background:accumulate"
       d="m 197.5,390 7.5,0 19.5,-87.5 0,-39.5 -4.5,39.5 -16,76.5 z"
       id="path3138"
       inkscape:connector-curvature="0" />
    <path
       style="opacity:0.75;color:#000000;fill:#000000;fill-opacity:1;fill-rule:nonzero;stroke:none;stroke-width:1;marker:none;visibility:visible;display:inline;overflow:visible;enable-background:accumulate"
       d="m 314,472 7.5,0 19.5,-87.5 0,-39.5 -4.5,39.5 -16,76.5 z"
       id="path3138-3"
       inkscape:connector-curvature="0" />
    <path
       style="opacity:0.75;color:#000000;fill:#000000;fill-opacity:1;fill-rule:nonzero;stroke:none;stroke-width:1;marker:none;visibility:visible;display:inline;overflow:visible;enable-background:accumulate"
       d="m 803,473 7.5,0 19.5,-87.5 0,-39.5 -4.5,39.5 -16,76.5 z"
       id="path3138-9"
       inkscape:connector-curvature="0" />
    <path
       style="opacity:0.75;color:#000000;fill:#000000;fill-opacity:1;fill-rule:nonzero;stroke:none;stroke-width:1;marker:none;visibility:visible;display:inline;overflow:visible;enable-background:accumulate"
       d="m 920.5,391.5 7.5,0 19.5,-87.5 0,-39.5 -4.5,39.5 -16,76.5 z"
       id="path3138-1"
       inkscape:connector-curvature="0" />
    <path
       style="opacity:0.75000000000000000;color:#000000;fill:#000000;fill-opacity:1;fill-rule:nonzero;stroke:none;stroke-width:1;marker:none;visibility:visible;display:inline;overflow:visible;enable-background:accumulate"
       d="m 172.88761,230.50875 c 1.06066,2.82843 22.27386,28.99138 22.27386,28.99138 l 30.75915,4.59619 -29.34493,-11.66726 z"
       id="path3210"
       inkscape:connector-curvature="0" />
    <path
       style="opacity:0.75;color:#000000;fill:#000000;fill-opacity:1;fill-rule:nonzero;stroke:none;stroke-width:1;marker:none;visibility:visible;display:inline;overflow:visible;enable-background:accumulate"
       d="m 288.49957,272.93516 c 4.59619,1.06066 54.44722,11.3137 54.44722,11.3137 l -38.18377,-2.82842 z"
       id="path3212"
       inkscape:connector-curvature="0" />
    <path
       style="opacity:0.75;color:#000000;fill:#000000;fill-opacity:1;fill-rule:nonzero;stroke:none;stroke-width:1;marker:none;visibility:visible;display:inline;overflow:visible;enable-background:accumulate"
       d="m 776.7568,284.60242 54.09367,-11.66726 -0.35356,6.36396 z"
       id="path3214"
       inkscape:connector-curvature="0"
       sodipodi:nodetypes="cccc" />
    <path
       style="opacity:0.75;color:#000000;fill:#000000;fill-opacity:1;fill-rule:nonzero;stroke:none;stroke-width:1;marker:none;visibility:visible;display:inline;overflow:visible;enable-background:accumulate"
       d="m 900.50049,257.02525 21.2132,-4.59619 26.5165,-25.8094 -22.62741,26.51651 z"
       id="path3216"
       inkscape:connector-curvature="0" />
    <path
       style="opacity:0.5;color:#000000;fill:#000000;fill-opacity:1;fill-rule:nonzero;stroke:none;stroke-width:1;marker:none;visibility:visible;display:inline;overflow:visible;enable-background:accumulate"
       d="m 196,384 c 1.5,-18.5 8.5,-127.5 8.5,-127.5 l 17,4.5 -18,113.5 z"
       id="path3218"
       inkscape:connector-curvature="0" />
    <path
       style="opacity:0.5;color:#000000;fill:#000000;fill-opacity:1;fill-rule:nonzero;stroke:none;stroke-width:1;marker:none;visibility:visible;display:inline;overflow:visible;enable-background:accumulate"
       d="m 313.25,463.75 c 1.5,-18.5 3.25,-182.5 3.25,-182.5 l 27.5,2.875 -6.58372,72.97925 L 320.75,454.25 z"
       id="path3218-9"
       inkscape:connector-curvature="0"
       sodipodi:nodetypes="cccccc" />
    <path
       style="opacity:0.5;color:#000000;fill:#000000;fill-opacity:1;fill-rule:nonzero;stroke:none;stroke-width:1;marker:none;visibility:visible;display:inline;overflow:visible;enable-background:accumulate"
       d="m 803.25,465.75 c 1.5,-18.5 -8,-179 -8,-179 l 34.5,-4.5 -4.56137,81.32519 L 810.75,456.25 z"
       id="path3218-4"
       inkscape:connector-curvature="0"
       sodipodi:nodetypes="cccccc" />
    <path
       style="opacity:0.5;color:#000000;fill:#000000;fill-opacity:1;fill-rule:nonzero;stroke:none;stroke-width:1;marker:none;visibility:visible;display:inline;overflow:visible;enable-background:accumulate"
       d="m 918.75,385.75 c 1.5,-18.5 8.5,-127.5 8.5,-127.5 l 19.5,-24 -6.63373,68.6946 L 926.25,376.25 z"
       id="path3218-2"
       inkscape:connector-curvature="0"
       sodipodi:nodetypes="cccccc" />
  </g>
</svg>
